<mxfile host="Electron" modified="2025-04-13T21:13:18.448Z" agent="Mozilla/5.0 (Macintosh; Intel Mac OS X 10_15_7) AppleWebKit/537.36 (KHTML, like Gecko) draw.io/22.1.2 Chrome/114.0.5735.289 Electron/25.9.4 Safari/537.36" etag="TZeDK7sP0MTKGd68uwZi" version="22.1.2" type="device">
  <diagram name="Seite-1" id="IW0kpq4Cw4jP33ETwLJq">
    <mxGraphModel dx="2708" dy="1224" grid="1" gridSize="10" guides="1" tooltips="1" connect="1" arrows="1" fold="1" page="0" pageScale="1" pageWidth="827" pageHeight="1169" math="0" shadow="0">
      <root>
        <mxCell id="0" />
        <mxCell id="1" parent="0" />
        <mxCell id="RGf4goRO3DSi2ztkxVss-9" style="edgeStyle=orthogonalEdgeStyle;rounded=0;orthogonalLoop=1;jettySize=auto;html=1;exitX=1;exitY=0.5;exitDx=0;exitDy=0;exitPerimeter=0;" edge="1" parent="1" source="RGf4goRO3DSi2ztkxVss-1" target="RGf4goRO3DSi2ztkxVss-6">
          <mxGeometry relative="1" as="geometry" />
        </mxCell>
        <object placeholders="1" c4Name="Data collection" c4Type="Software System" c4Description="" label="&lt;font style=&quot;font-size: 16px&quot;&gt;&lt;b&gt;%c4Name%&lt;/b&gt;&lt;/font&gt;&lt;div&gt;[%c4Type%]&lt;/div&gt;&lt;br&gt;&lt;div&gt;&lt;font style=&quot;font-size: 11px&quot;&gt;&lt;font color=&quot;#cccccc&quot;&gt;%c4Description%&lt;/font&gt;&lt;/div&gt;" id="RGf4goRO3DSi2ztkxVss-1">
          <mxCell style="rounded=1;whiteSpace=wrap;html=1;labelBackgroundColor=none;fillColor=#1061B0;fontColor=#ffffff;align=center;arcSize=10;strokeColor=#0D5091;metaEdit=1;resizable=0;points=[[0.25,0,0],[0.5,0,0],[0.75,0,0],[1,0.25,0],[1,0.5,0],[1,0.75,0],[0.75,1,0],[0.5,1,0],[0.25,1,0],[0,0.75,0],[0,0.5,0],[0,0.25,0]];" vertex="1" parent="1">
            <mxGeometry x="230" y="340" width="240" height="120" as="geometry" />
          </mxCell>
        </object>
        <object placeholders="1" c4Name="Polygon IO " c4Type="Software System" c4Description="Candle data provider" label="&lt;font style=&quot;font-size: 16px&quot;&gt;&lt;b&gt;%c4Name%&lt;/b&gt;&lt;/font&gt;&lt;div&gt;[%c4Type%]&lt;/div&gt;&lt;br&gt;&lt;div&gt;&lt;font style=&quot;font-size: 11px&quot;&gt;&lt;font color=&quot;#cccccc&quot;&gt;%c4Description%&lt;/font&gt;&lt;/div&gt;" id="RGf4goRO3DSi2ztkxVss-2">
          <mxCell style="rounded=1;whiteSpace=wrap;html=1;labelBackgroundColor=none;fillColor=#8C8496;fontColor=#ffffff;align=center;arcSize=10;strokeColor=#736782;metaEdit=1;resizable=0;points=[[0.25,0,0],[0.5,0,0],[0.75,0,0],[1,0.25,0],[1,0.5,0],[1,0.75,0],[0.75,1,0],[0.5,1,0],[0.25,1,0],[0,0.75,0],[0,0.5,0],[0,0.25,0]];" vertex="1" parent="1">
            <mxGeometry x="-310" y="170" width="240" height="120" as="geometry" />
          </mxCell>
        </object>
        <object placeholders="1" c4Name="EOD HD" c4Type="Software System" c4Description="Fundamental data provider" label="&lt;font style=&quot;font-size: 16px&quot;&gt;&lt;b&gt;%c4Name%&lt;/b&gt;&lt;/font&gt;&lt;div&gt;[%c4Type%]&lt;/div&gt;&lt;br&gt;&lt;div&gt;&lt;font style=&quot;font-size: 11px&quot;&gt;&lt;font color=&quot;#cccccc&quot;&gt;%c4Description%&lt;/font&gt;&lt;/div&gt;" id="RGf4goRO3DSi2ztkxVss-3">
          <mxCell style="rounded=1;whiteSpace=wrap;html=1;labelBackgroundColor=none;fillColor=#8C8496;fontColor=#ffffff;align=center;arcSize=10;strokeColor=#736782;metaEdit=1;resizable=0;points=[[0.25,0,0],[0.5,0,0],[0.75,0,0],[1,0.25,0],[1,0.5,0],[1,0.75,0],[0.75,1,0],[0.5,1,0],[0.25,1,0],[0,0.75,0],[0,0.5,0],[0,0.25,0]];" vertex="1" parent="1">
            <mxGeometry x="-310" y="340" width="240" height="120" as="geometry" />
          </mxCell>
        </object>
        <object placeholders="1" c4Name="Alpha Vantage" c4Type="Software System" c4Description="Options data provider" label="&lt;font style=&quot;font-size: 16px&quot;&gt;&lt;b&gt;%c4Name%&lt;/b&gt;&lt;/font&gt;&lt;div&gt;[%c4Type%]&lt;/div&gt;&lt;br&gt;&lt;div&gt;&lt;font style=&quot;font-size: 11px&quot;&gt;&lt;font color=&quot;#cccccc&quot;&gt;%c4Description%&lt;/font&gt;&lt;/div&gt;" id="RGf4goRO3DSi2ztkxVss-5">
          <mxCell style="rounded=1;whiteSpace=wrap;html=1;labelBackgroundColor=none;fillColor=#8C8496;fontColor=#ffffff;align=center;arcSize=10;strokeColor=#736782;metaEdit=1;resizable=0;points=[[0.25,0,0],[0.5,0,0],[0.75,0,0],[1,0.25,0],[1,0.5,0],[1,0.75,0],[0.75,1,0],[0.5,1,0],[0.25,1,0],[0,0.75,0],[0,0.5,0],[0,0.25,0]];" vertex="1" parent="1">
            <mxGeometry x="-310" y="510" width="240" height="120" as="geometry" />
          </mxCell>
        </object>
        <object placeholders="1" c4Type="Data Storage" c4Container="System" c4Technology="Parquet/CSV files" c4Description="" label="&lt;font style=&quot;font-size: 16px&quot;&gt;&lt;b&gt;%c4Type%&lt;/b&gt;&lt;/font&gt;&lt;div&gt;[%c4Container%:&amp;nbsp;%c4Technology%]&lt;/div&gt;&lt;br&gt;&lt;div&gt;&lt;font style=&quot;font-size: 11px&quot;&gt;&lt;font color=&quot;#E6E6E6&quot;&gt;%c4Description%&lt;/font&gt;&lt;/div&gt;" id="RGf4goRO3DSi2ztkxVss-6">
          <mxCell style="shape=cylinder3;size=15;whiteSpace=wrap;html=1;boundedLbl=1;rounded=0;labelBackgroundColor=none;fillColor=#23A2D9;fontSize=12;fontColor=#ffffff;align=center;strokeColor=#0E7DAD;metaEdit=1;points=[[0.5,0,0],[1,0.25,0],[1,0.5,0],[1,0.75,0],[0.5,1,0],[0,0.75,0],[0,0.5,0],[0,0.25,0]];resizable=0;" vertex="1" parent="1">
            <mxGeometry x="680" y="340" width="240" height="120" as="geometry" />
          </mxCell>
        </object>
        <object placeholders="1" c4Name="Fastscanner" c4Type="Software System" c4Description="Computes historical indicators" label="&lt;font style=&quot;font-size: 16px&quot;&gt;&lt;b&gt;%c4Name%&lt;/b&gt;&lt;/font&gt;&lt;div&gt;[%c4Type%]&lt;/div&gt;&lt;br&gt;&lt;div&gt;&lt;font style=&quot;font-size: 11px&quot;&gt;&lt;font color=&quot;#cccccc&quot;&gt;%c4Description%&lt;/font&gt;&lt;/div&gt;" id="RGf4goRO3DSi2ztkxVss-13">
          <mxCell style="rounded=1;whiteSpace=wrap;html=1;labelBackgroundColor=none;fillColor=#1061B0;fontColor=#ffffff;align=center;arcSize=10;strokeColor=#0D5091;metaEdit=1;resizable=0;points=[[0.25,0,0],[0.5,0,0],[0.75,0,0],[1,0.25,0],[1,0.5,0],[1,0.75,0],[0.75,1,0],[0.5,1,0],[0.25,1,0],[0,0.75,0],[0,0.5,0],[0,0.25,0]];" vertex="1" parent="1">
            <mxGeometry x="680" y="800" width="240" height="120" as="geometry" />
          </mxCell>
        </object>
        <mxCell id="RGf4goRO3DSi2ztkxVss-14" style="edgeStyle=orthogonalEdgeStyle;rounded=0;orthogonalLoop=1;jettySize=auto;html=1;exitX=0;exitY=0.25;exitDx=0;exitDy=0;exitPerimeter=0;entryX=1;entryY=0.5;entryDx=0;entryDy=0;entryPerimeter=0;" edge="1" parent="1" source="RGf4goRO3DSi2ztkxVss-1" target="RGf4goRO3DSi2ztkxVss-2">
          <mxGeometry relative="1" as="geometry" />
        </mxCell>
        <mxCell id="RGf4goRO3DSi2ztkxVss-15" style="edgeStyle=orthogonalEdgeStyle;rounded=0;orthogonalLoop=1;jettySize=auto;html=1;exitX=0;exitY=0.5;exitDx=0;exitDy=0;exitPerimeter=0;entryX=1;entryY=0.5;entryDx=0;entryDy=0;entryPerimeter=0;" edge="1" parent="1" source="RGf4goRO3DSi2ztkxVss-1" target="RGf4goRO3DSi2ztkxVss-3">
          <mxGeometry relative="1" as="geometry" />
        </mxCell>
        <mxCell id="RGf4goRO3DSi2ztkxVss-16" style="edgeStyle=orthogonalEdgeStyle;rounded=0;orthogonalLoop=1;jettySize=auto;html=1;exitX=0;exitY=0.75;exitDx=0;exitDy=0;exitPerimeter=0;entryX=1;entryY=0.5;entryDx=0;entryDy=0;entryPerimeter=0;" edge="1" parent="1" source="RGf4goRO3DSi2ztkxVss-1" target="RGf4goRO3DSi2ztkxVss-5">
          <mxGeometry relative="1" as="geometry" />
        </mxCell>
        <mxCell id="RGf4goRO3DSi2ztkxVss-19" style="edgeStyle=orthogonalEdgeStyle;rounded=0;orthogonalLoop=1;jettySize=auto;html=1;exitX=0.5;exitY=0;exitDx=0;exitDy=0;exitPerimeter=0;entryX=0;entryY=0.5;entryDx=0;entryDy=0;entryPerimeter=0;" edge="1" parent="1" target="RGf4goRO3DSi2ztkxVss-13">
          <mxGeometry relative="1" as="geometry">
            <mxPoint x="410" y="860" as="sourcePoint" />
          </mxGeometry>
        </mxCell>
        <mxCell id="RGf4goRO3DSi2ztkxVss-20" value="Pushes real time data" style="text;html=1;align=center;verticalAlign=middle;resizable=0;points=[];autosize=1;strokeColor=none;fillColor=none;" vertex="1" parent="1">
          <mxGeometry x="470" y="828" width="140" height="30" as="geometry" />
        </mxCell>
        <mxCell id="RGf4goRO3DSi2ztkxVss-21" style="edgeStyle=orthogonalEdgeStyle;rounded=0;orthogonalLoop=1;jettySize=auto;html=1;exitX=0.5;exitY=0;exitDx=0;exitDy=0;exitPerimeter=0;entryX=0.5;entryY=1;entryDx=0;entryDy=0;entryPerimeter=0;" edge="1" parent="1" source="RGf4goRO3DSi2ztkxVss-13" target="RGf4goRO3DSi2ztkxVss-6">
          <mxGeometry relative="1" as="geometry" />
        </mxCell>
        <object placeholders="1" c4Name="Fastrader" c4Type="Software System" c4Description="Performs the trades" label="&lt;font style=&quot;font-size: 16px&quot;&gt;&lt;b&gt;%c4Name%&lt;/b&gt;&lt;/font&gt;&lt;div&gt;[%c4Type%]&lt;/div&gt;&lt;br&gt;&lt;div&gt;&lt;font style=&quot;font-size: 11px&quot;&gt;&lt;font color=&quot;#cccccc&quot;&gt;%c4Description%&lt;/font&gt;&lt;/div&gt;" id="RGf4goRO3DSi2ztkxVss-22">
          <mxCell style="rounded=1;whiteSpace=wrap;html=1;labelBackgroundColor=none;fillColor=#1061B0;fontColor=#ffffff;align=center;arcSize=10;strokeColor=#0D5091;metaEdit=1;resizable=0;points=[[0.25,0,0],[0.5,0,0],[0.75,0,0],[1,0.25,0],[1,0.5,0],[1,0.75,0],[0.75,1,0],[0.5,1,0],[0.25,1,0],[0,0.75,0],[0,0.5,0],[0,0.25,0]];" vertex="1" parent="1">
            <mxGeometry x="1190" y="800" width="240" height="120" as="geometry" />
          </mxCell>
        </object>
        <mxCell id="RGf4goRO3DSi2ztkxVss-24" value="Pushes indicators to fastrader" style="text;html=1;align=center;verticalAlign=middle;resizable=0;points=[];autosize=1;strokeColor=none;fillColor=none;" vertex="1" parent="1">
          <mxGeometry x="970" y="808" width="180" height="30" as="geometry" />
        </mxCell>
        <mxCell id="RGf4goRO3DSi2ztkxVss-25" style="edgeStyle=orthogonalEdgeStyle;rounded=0;orthogonalLoop=1;jettySize=auto;html=1;exitX=1;exitY=0.25;exitDx=0;exitDy=0;exitPerimeter=0;entryX=0;entryY=0.25;entryDx=0;entryDy=0;entryPerimeter=0;" edge="1" parent="1" source="RGf4goRO3DSi2ztkxVss-13" target="RGf4goRO3DSi2ztkxVss-22">
          <mxGeometry relative="1" as="geometry" />
        </mxCell>
        <mxCell id="RGf4goRO3DSi2ztkxVss-26" style="edgeStyle=orthogonalEdgeStyle;rounded=0;orthogonalLoop=1;jettySize=auto;html=1;exitX=0;exitY=0.75;exitDx=0;exitDy=0;exitPerimeter=0;entryX=1;entryY=0.75;entryDx=0;entryDy=0;entryPerimeter=0;" edge="1" parent="1" source="RGf4goRO3DSi2ztkxVss-22" target="RGf4goRO3DSi2ztkxVss-13">
          <mxGeometry relative="1" as="geometry" />
        </mxCell>
        <mxCell id="RGf4goRO3DSi2ztkxVss-27" value="Subscribes to indicators" style="text;html=1;align=center;verticalAlign=middle;resizable=0;points=[];autosize=1;strokeColor=none;fillColor=none;" vertex="1" parent="1">
          <mxGeometry x="985" y="870" width="150" height="30" as="geometry" />
        </mxCell>
        <object placeholders="1" c4Name="Fastester" c4Type="Software System" c4Description="Backtest for strategies" label="&lt;font style=&quot;font-size: 16px&quot;&gt;&lt;b&gt;%c4Name%&lt;/b&gt;&lt;/font&gt;&lt;div&gt;[%c4Type%]&lt;/div&gt;&lt;br&gt;&lt;div&gt;&lt;font style=&quot;font-size: 11px&quot;&gt;&lt;font color=&quot;#cccccc&quot;&gt;%c4Description%&lt;/font&gt;&lt;/div&gt;" id="RGf4goRO3DSi2ztkxVss-29">
          <mxCell style="rounded=1;whiteSpace=wrap;html=1;labelBackgroundColor=none;fillColor=#1061B0;fontColor=#ffffff;align=center;arcSize=10;strokeColor=#0D5091;metaEdit=1;resizable=0;points=[[0.25,0,0],[0.5,0,0],[0.75,0,0],[1,0.25,0],[1,0.5,0],[1,0.75,0],[0.75,1,0],[0.5,1,0],[0.25,1,0],[0,0.75,0],[0,0.5,0],[0,0.25,0]];" vertex="1" parent="1">
            <mxGeometry x="1190" y="990" width="240" height="120" as="geometry" />
          </mxCell>
        </object>
        <mxCell id="RGf4goRO3DSi2ztkxVss-30" style="edgeStyle=orthogonalEdgeStyle;rounded=0;orthogonalLoop=1;jettySize=auto;html=1;exitX=0;exitY=0.5;exitDx=0;exitDy=0;exitPerimeter=0;entryX=0.5;entryY=1;entryDx=0;entryDy=0;entryPerimeter=0;" edge="1" parent="1" source="RGf4goRO3DSi2ztkxVss-29" target="RGf4goRO3DSi2ztkxVss-13">
          <mxGeometry relative="1" as="geometry" />
        </mxCell>
        <object placeholders="1" c4Name="Fastscanner" c4Type="SystemScopeBoundary" c4Application="Software System" label="&lt;font style=&quot;font-size: 16px&quot;&gt;&lt;b&gt;&lt;div style=&quot;text-align: left&quot;&gt;%c4Name%&lt;/div&gt;&lt;/b&gt;&lt;/font&gt;&lt;div style=&quot;text-align: left&quot;&gt;[%c4Application%]&lt;/div&gt;" id="RGf4goRO3DSi2ztkxVss-31">
          <mxCell style="rounded=1;fontSize=11;whiteSpace=wrap;html=1;dashed=1;arcSize=20;fillColor=none;strokeColor=#666666;fontColor=#333333;labelBackgroundColor=none;align=left;verticalAlign=bottom;labelBorderColor=none;spacingTop=0;spacing=10;dashPattern=8 4;metaEdit=1;rotatable=0;perimeter=rectanglePerimeter;noLabel=0;labelPadding=0;allowArrows=0;connectable=0;expand=0;recursiveResize=0;editable=1;pointerEvents=0;absoluteArcSize=1;points=[[0.25,0,0],[0.5,0,0],[0.75,0,0],[1,0.25,0],[1,0.5,0],[1,0.75,0],[0.75,1,0],[0.5,1,0],[0.25,1,0],[0,0.75,0],[0,0.5,0],[0,0.25,0]];" vertex="1" parent="1">
            <mxGeometry x="-680" y="1080" width="1580" height="950" as="geometry" />
          </mxCell>
        </object>
        <mxCell id="RGf4goRO3DSi2ztkxVss-62" style="edgeStyle=orthogonalEdgeStyle;rounded=0;orthogonalLoop=1;jettySize=auto;html=1;exitX=0.5;exitY=0;exitDx=0;exitDy=0;exitPerimeter=0;" edge="1" parent="1" source="RGf4goRO3DSi2ztkxVss-32" target="RGf4goRO3DSi2ztkxVss-58">
          <mxGeometry relative="1" as="geometry" />
        </mxCell>
        <object placeholders="1" c4Type="Redis streams" c4Container="System" c4Technology="Redis" c4Description="Subscribes to candle data" label="&lt;font style=&quot;font-size: 16px&quot;&gt;&lt;b&gt;%c4Type%&lt;/b&gt;&lt;/font&gt;&lt;div&gt;[%c4Container%:&amp;nbsp;%c4Technology%]&lt;/div&gt;&lt;br&gt;&lt;div&gt;&lt;font style=&quot;font-size: 11px&quot;&gt;&lt;font color=&quot;#E6E6E6&quot;&gt;%c4Description%&lt;/font&gt;&lt;/div&gt;" id="RGf4goRO3DSi2ztkxVss-32">
          <mxCell style="shape=cylinder3;size=15;direction=south;whiteSpace=wrap;html=1;boundedLbl=1;rounded=0;labelBackgroundColor=none;fillColor=#23A2D9;fontSize=12;fontColor=#ffffff;align=center;strokeColor=#0E7DAD;metaEdit=1;points=[[0.5,0,0],[1,0.25,0],[1,0.5,0],[1,0.75,0],[0.5,1,0],[0,0.75,0],[0,0.5,0],[0,0.25,0]];resizable=0;" vertex="1" parent="1">
            <mxGeometry x="-240" y="1575" width="240" height="120" as="geometry" />
          </mxCell>
        </object>
        <object placeholders="1" c4Name="Fastrader" c4Type="Software System" c4Description="Performs the trades" label="&lt;font style=&quot;font-size: 16px&quot;&gt;&lt;b&gt;%c4Name%&lt;/b&gt;&lt;/font&gt;&lt;div&gt;[%c4Type%]&lt;/div&gt;&lt;br&gt;&lt;div&gt;&lt;font style=&quot;font-size: 11px&quot;&gt;&lt;font color=&quot;#cccccc&quot;&gt;%c4Description%&lt;/font&gt;&lt;/div&gt;" id="RGf4goRO3DSi2ztkxVss-49">
          <mxCell style="rounded=1;whiteSpace=wrap;html=1;labelBackgroundColor=none;fillColor=#1061B0;fontColor=#ffffff;align=center;arcSize=10;strokeColor=#0D5091;metaEdit=1;resizable=0;points=[[0.25,0,0],[0.5,0,0],[0.75,0,0],[1,0.25,0],[1,0.5,0],[1,0.75,0],[0.75,1,0],[0.5,1,0],[0.25,1,0],[0,0.75,0],[0,0.5,0],[0,0.25,0]];" vertex="1" parent="1">
            <mxGeometry x="1070" y="1575" width="240" height="120" as="geometry" />
          </mxCell>
        </object>
        <object placeholders="1" c4Name="Fastester" c4Type="Software System" c4Description="Backtest for strategies" label="&lt;font style=&quot;font-size: 16px&quot;&gt;&lt;b&gt;%c4Name%&lt;/b&gt;&lt;/font&gt;&lt;div&gt;[%c4Type%]&lt;/div&gt;&lt;br&gt;&lt;div&gt;&lt;font style=&quot;font-size: 11px&quot;&gt;&lt;font color=&quot;#cccccc&quot;&gt;%c4Description%&lt;/font&gt;&lt;/div&gt;" id="RGf4goRO3DSi2ztkxVss-50">
          <mxCell style="rounded=1;whiteSpace=wrap;html=1;labelBackgroundColor=none;fillColor=#1061B0;fontColor=#ffffff;align=center;arcSize=10;strokeColor=#0D5091;metaEdit=1;resizable=0;points=[[0.25,0,0],[0.5,0,0],[0.75,0,0],[1,0.25,0],[1,0.5,0],[1,0.75,0],[0.75,1,0],[0.5,1,0],[0.25,1,0],[0,0.75,0],[0,0.5,0],[0,0.25,0]];" vertex="1" parent="1">
            <mxGeometry x="1340" y="1800" width="240" height="120" as="geometry" />
          </mxCell>
        </object>
        <object placeholders="1" c4Name="Indicators calculator" c4Type="Component" c4Technology="Python" c4Description="Calculates the indicators" label="&lt;font style=&quot;font-size: 16px&quot;&gt;&lt;b&gt;%c4Name%&lt;/b&gt;&lt;/font&gt;&lt;div&gt;[%c4Type%: %c4Technology%]&lt;/div&gt;&lt;br&gt;&lt;div&gt;&lt;font style=&quot;font-size: 11px&quot;&gt;%c4Description%&lt;/font&gt;&lt;/div&gt;" id="RGf4goRO3DSi2ztkxVss-57">
          <mxCell style="rounded=1;whiteSpace=wrap;html=1;labelBackgroundColor=none;fillColor=#63BEF2;fontColor=#ffffff;align=center;arcSize=6;strokeColor=#2086C9;metaEdit=1;resizable=0;points=[[0.25,0,0],[0.5,0,0],[0.75,0,0],[1,0.25,0],[1,0.5,0],[1,0.75,0],[0.75,1,0],[0.5,1,0],[0.25,1,0],[0,0.75,0],[0,0.5,0],[0,0.25,0]];" vertex="1" parent="1">
            <mxGeometry x="70" y="1390" width="240" height="120" as="geometry" />
          </mxCell>
        </object>
        <object placeholders="1" c4Name="Indicators Real Time" c4Type="Component" c4Technology="Python" c4Description="Calculates the indicators" label="&lt;font style=&quot;font-size: 16px&quot;&gt;&lt;b&gt;%c4Name%&lt;/b&gt;&lt;/font&gt;&lt;div&gt;[%c4Type%: %c4Technology%]&lt;/div&gt;&lt;br&gt;&lt;div&gt;&lt;font style=&quot;font-size: 11px&quot;&gt;%c4Description%&lt;/font&gt;&lt;/div&gt;" id="RGf4goRO3DSi2ztkxVss-58">
          <mxCell style="rounded=1;whiteSpace=wrap;html=1;labelBackgroundColor=none;fillColor=#63BEF2;fontColor=#ffffff;align=center;arcSize=6;strokeColor=#2086C9;metaEdit=1;resizable=0;points=[[0.25,0,0],[0.5,0,0],[0.75,0,0],[1,0.25,0],[1,0.5,0],[1,0.75,0],[0.75,1,0],[0.5,1,0],[0.25,1,0],[0,0.75,0],[0,0.5,0],[0,0.25,0]];" vertex="1" parent="1">
            <mxGeometry x="370" y="1575" width="240" height="120" as="geometry" />
          </mxCell>
        </object>
        <mxCell id="RGf4goRO3DSi2ztkxVss-59" style="edgeStyle=orthogonalEdgeStyle;rounded=0;orthogonalLoop=1;jettySize=auto;html=1;exitX=0;exitY=0.25;exitDx=0;exitDy=0;exitPerimeter=0;entryX=1;entryY=0.25;entryDx=0;entryDy=0;entryPerimeter=0;" edge="1" parent="1" source="RGf4goRO3DSi2ztkxVss-49" target="RGf4goRO3DSi2ztkxVss-58">
          <mxGeometry relative="1" as="geometry" />
        </mxCell>
        <mxCell id="RGf4goRO3DSi2ztkxVss-60" style="edgeStyle=orthogonalEdgeStyle;rounded=0;orthogonalLoop=1;jettySize=auto;html=1;exitX=1;exitY=0.75;exitDx=0;exitDy=0;exitPerimeter=0;entryX=0;entryY=0.75;entryDx=0;entryDy=0;entryPerimeter=0;" edge="1" parent="1" source="RGf4goRO3DSi2ztkxVss-58" target="RGf4goRO3DSi2ztkxVss-49">
          <mxGeometry relative="1" as="geometry" />
        </mxCell>
        <mxCell id="RGf4goRO3DSi2ztkxVss-61" style="edgeStyle=orthogonalEdgeStyle;rounded=0;orthogonalLoop=1;jettySize=auto;html=1;exitX=0;exitY=0.25;exitDx=0;exitDy=0;exitPerimeter=0;entryX=1;entryY=0.5;entryDx=0;entryDy=0;entryPerimeter=0;" edge="1" parent="1" source="RGf4goRO3DSi2ztkxVss-58" target="RGf4goRO3DSi2ztkxVss-57">
          <mxGeometry relative="1" as="geometry" />
        </mxCell>
        <object placeholders="1" c4Name="Indicators file generator" c4Type="Component" c4Technology="Python" c4Description="Calculates the indicators and stores them in a file" label="&lt;font style=&quot;font-size: 16px&quot;&gt;&lt;b&gt;%c4Name%&lt;/b&gt;&lt;/font&gt;&lt;div&gt;[%c4Type%: %c4Technology%]&lt;/div&gt;&lt;br&gt;&lt;div&gt;&lt;font style=&quot;font-size: 11px&quot;&gt;%c4Description%&lt;/font&gt;&lt;/div&gt;" id="RGf4goRO3DSi2ztkxVss-63">
          <mxCell style="rounded=1;whiteSpace=wrap;html=1;labelBackgroundColor=none;fillColor=#63BEF2;fontColor=#ffffff;align=center;arcSize=6;strokeColor=#2086C9;metaEdit=1;resizable=0;points=[[0.25,0,0],[0.5,0,0],[0.75,0,0],[1,0.25,0],[1,0.5,0],[1,0.75,0],[0.75,1,0],[0.5,1,0],[0.25,1,0],[0,0.75,0],[0,0.5,0],[0,0.25,0]];" vertex="1" parent="1">
            <mxGeometry x="70" y="1800" width="240" height="120" as="geometry" />
          </mxCell>
        </object>
        <mxCell id="RGf4goRO3DSi2ztkxVss-64" style="edgeStyle=orthogonalEdgeStyle;rounded=0;orthogonalLoop=1;jettySize=auto;html=1;exitX=0.5;exitY=1;exitDx=0;exitDy=0;exitPerimeter=0;entryX=0;entryY=0.5;entryDx=0;entryDy=0;entryPerimeter=0;" edge="1" parent="1" source="RGf4goRO3DSi2ztkxVss-1" target="RGf4goRO3DSi2ztkxVss-13">
          <mxGeometry relative="1" as="geometry" />
        </mxCell>
        <mxCell id="RGf4goRO3DSi2ztkxVss-67" style="edgeStyle=orthogonalEdgeStyle;rounded=0;orthogonalLoop=1;jettySize=auto;html=1;exitX=1;exitY=0.5;exitDx=0;exitDy=0;exitPerimeter=0;" edge="1" parent="1" source="RGf4goRO3DSi2ztkxVss-65" target="RGf4goRO3DSi2ztkxVss-32">
          <mxGeometry relative="1" as="geometry" />
        </mxCell>
        <object placeholders="1" c4Name="Data collection" c4Type="Software System" c4Description="" label="&lt;font style=&quot;font-size: 16px&quot;&gt;&lt;b&gt;%c4Name%&lt;/b&gt;&lt;/font&gt;&lt;div&gt;[%c4Type%]&lt;/div&gt;&lt;br&gt;&lt;div&gt;&lt;font style=&quot;font-size: 11px&quot;&gt;&lt;font color=&quot;#cccccc&quot;&gt;%c4Description%&lt;/font&gt;&lt;/div&gt;" id="RGf4goRO3DSi2ztkxVss-65">
          <mxCell style="rounded=1;whiteSpace=wrap;html=1;labelBackgroundColor=none;fillColor=#1061B0;fontColor=#ffffff;align=center;arcSize=10;strokeColor=#0D5091;metaEdit=1;resizable=0;points=[[0.25,0,0],[0.5,0,0],[0.75,0,0],[1,0.25,0],[1,0.5,0],[1,0.75,0],[0.75,1,0],[0.5,1,0],[0.25,1,0],[0,0.75,0],[0,0.5,0],[0,0.25,0]];" vertex="1" parent="1">
            <mxGeometry x="-630" y="1575" width="240" height="120" as="geometry" />
          </mxCell>
        </object>
        <mxCell id="RGf4goRO3DSi2ztkxVss-70" value="Subscribe to indicators" style="text;html=1;align=center;verticalAlign=middle;resizable=0;points=[];autosize=1;strokeColor=none;fillColor=none;" vertex="1" parent="1">
          <mxGeometry x="775" y="1575" width="140" height="30" as="geometry" />
        </mxCell>
        <mxCell id="RGf4goRO3DSi2ztkxVss-71" value="Push real time data" style="text;html=1;align=center;verticalAlign=middle;resizable=0;points=[];autosize=1;strokeColor=none;fillColor=none;" vertex="1" parent="1">
          <mxGeometry x="780" y="1640" width="130" height="30" as="geometry" />
        </mxCell>
        <object placeholders="1" c4Type="Indicators store" c4Container="Container" c4Technology="CSV/Parquet" c4Description="Storage for the indicators output" label="&lt;font style=&quot;font-size: 16px&quot;&gt;&lt;b&gt;%c4Type%&lt;/b&gt;&lt;/font&gt;&lt;div&gt;[%c4Container%:&amp;nbsp;%c4Technology%]&lt;/div&gt;&lt;br&gt;&lt;div&gt;&lt;font style=&quot;font-size: 11px&quot;&gt;&lt;font color=&quot;#E6E6E6&quot;&gt;%c4Description%&lt;/font&gt;&lt;/div&gt;" id="RGf4goRO3DSi2ztkxVss-73">
          <mxCell style="shape=cylinder3;size=15;whiteSpace=wrap;html=1;boundedLbl=1;rounded=0;labelBackgroundColor=none;fillColor=#23A2D9;fontSize=12;fontColor=#ffffff;align=center;strokeColor=#0E7DAD;metaEdit=1;points=[[0.5,0,0],[1,0.25,0],[1,0.5,0],[1,0.75,0],[0.5,1,0],[0,0.75,0],[0,0.5,0],[0,0.25,0]];resizable=0;" vertex="1" parent="1">
            <mxGeometry x="960" y="1800" width="240" height="120" as="geometry" />
          </mxCell>
        </object>
        <object placeholders="1" c4Type="Data Storage" c4Container="System" c4Technology="Parquet/CSV files" c4Description="" label="&lt;font style=&quot;font-size: 16px&quot;&gt;&lt;b&gt;%c4Type%&lt;/b&gt;&lt;/font&gt;&lt;div&gt;[%c4Container%:&amp;nbsp;%c4Technology%]&lt;/div&gt;&lt;br&gt;&lt;div&gt;&lt;font style=&quot;font-size: 11px&quot;&gt;&lt;font color=&quot;#E6E6E6&quot;&gt;%c4Description%&lt;/font&gt;&lt;/div&gt;" id="RGf4goRO3DSi2ztkxVss-74">
          <mxCell style="shape=cylinder3;size=15;whiteSpace=wrap;html=1;boundedLbl=1;rounded=0;labelBackgroundColor=none;fillColor=#23A2D9;fontSize=12;fontColor=#ffffff;align=center;strokeColor=#0E7DAD;metaEdit=1;points=[[0.5,0,0],[1,0.25,0],[1,0.5,0],[1,0.75,0],[0.5,1,0],[0,0.75,0],[0,0.5,0],[0,0.25,0]];resizable=0;" vertex="1" parent="1">
            <mxGeometry x="70" y="1140" width="240" height="120" as="geometry" />
          </mxCell>
        </object>
        <mxCell id="RGf4goRO3DSi2ztkxVss-76" style="edgeStyle=orthogonalEdgeStyle;rounded=0;orthogonalLoop=1;jettySize=auto;html=1;exitX=0.5;exitY=0;exitDx=0;exitDy=0;exitPerimeter=0;entryX=0.5;entryY=1;entryDx=0;entryDy=0;entryPerimeter=0;" edge="1" parent="1" source="RGf4goRO3DSi2ztkxVss-63" target="RGf4goRO3DSi2ztkxVss-57">
          <mxGeometry relative="1" as="geometry" />
        </mxCell>
        <mxCell id="RGf4goRO3DSi2ztkxVss-79" style="edgeStyle=orthogonalEdgeStyle;rounded=0;orthogonalLoop=1;jettySize=auto;html=1;exitX=0;exitY=0.5;exitDx=0;exitDy=0;exitPerimeter=0;entryX=1;entryY=0.5;entryDx=0;entryDy=0;entryPerimeter=0;" edge="1" parent="1" source="RGf4goRO3DSi2ztkxVss-50" target="RGf4goRO3DSi2ztkxVss-73">
          <mxGeometry relative="1" as="geometry" />
        </mxCell>
        <mxCell id="RGf4goRO3DSi2ztkxVss-80" value="Backtest from file" style="text;html=1;align=center;verticalAlign=middle;resizable=0;points=[];autosize=1;strokeColor=none;fillColor=none;" vertex="1" parent="1">
          <mxGeometry x="850" y="1830" width="120" height="30" as="geometry" />
        </mxCell>
        <mxCell id="RGf4goRO3DSi2ztkxVss-81" style="edgeStyle=orthogonalEdgeStyle;rounded=0;orthogonalLoop=1;jettySize=auto;html=1;exitX=1;exitY=0.5;exitDx=0;exitDy=0;exitPerimeter=0;entryX=0;entryY=0.5;entryDx=0;entryDy=0;entryPerimeter=0;" edge="1" parent="1" source="RGf4goRO3DSi2ztkxVss-63" target="RGf4goRO3DSi2ztkxVss-73">
          <mxGeometry relative="1" as="geometry" />
        </mxCell>
        <mxCell id="RGf4goRO3DSi2ztkxVss-83" style="edgeStyle=orthogonalEdgeStyle;rounded=0;orthogonalLoop=1;jettySize=auto;html=1;exitX=0;exitY=0.75;exitDx=0;exitDy=0;exitPerimeter=0;entryX=1;entryY=0.75;entryDx=0;entryDy=0;entryPerimeter=0;" edge="1" parent="1" source="RGf4goRO3DSi2ztkxVss-50" target="RGf4goRO3DSi2ztkxVss-63">
          <mxGeometry relative="1" as="geometry">
            <Array as="points">
              <mxPoint x="1280" y="1890" />
              <mxPoint x="1280" y="1970" />
              <mxPoint x="360" y="1970" />
              <mxPoint x="360" y="1890" />
            </Array>
          </mxGeometry>
        </mxCell>
        <mxCell id="RGf4goRO3DSi2ztkxVss-84" value="Triggers file generation" style="text;html=1;align=center;verticalAlign=middle;resizable=0;points=[];autosize=1;strokeColor=none;fillColor=none;" vertex="1" parent="1">
          <mxGeometry x="740" y="1938" width="150" height="30" as="geometry" />
        </mxCell>
        <mxCell id="RGf4goRO3DSi2ztkxVss-87" style="edgeStyle=orthogonalEdgeStyle;rounded=0;orthogonalLoop=1;jettySize=auto;html=1;" edge="1" parent="1" source="RGf4goRO3DSi2ztkxVss-86" target="RGf4goRO3DSi2ztkxVss-74">
          <mxGeometry relative="1" as="geometry" />
        </mxCell>
        <object placeholders="1" c4Name="Collect" c4Type="Component" c4Technology="Python" c4Description="Collects market data" label="&lt;font style=&quot;font-size: 16px&quot;&gt;&lt;b&gt;%c4Name%&lt;/b&gt;&lt;/font&gt;&lt;div&gt;[%c4Type%: %c4Technology%]&lt;/div&gt;&lt;br&gt;&lt;div&gt;&lt;font style=&quot;font-size: 11px&quot;&gt;%c4Description%&lt;/font&gt;&lt;/div&gt;" id="RGf4goRO3DSi2ztkxVss-86">
          <mxCell style="rounded=1;whiteSpace=wrap;html=1;labelBackgroundColor=none;fillColor=#63BEF2;fontColor=#ffffff;align=center;arcSize=6;strokeColor=#2086C9;metaEdit=1;resizable=0;points=[[0.25,0,0],[0.5,0,0],[0.75,0,0],[1,0.25,0],[1,0.5,0],[1,0.75,0],[0.75,1,0],[0.5,1,0],[0.25,1,0],[0,0.75,0],[0,0.5,0],[0,0.25,0]];" vertex="1" parent="1">
            <mxGeometry x="-309" y="1140" width="240" height="120" as="geometry" />
          </mxCell>
        </object>
        <mxCell id="RGf4goRO3DSi2ztkxVss-88" style="edgeStyle=orthogonalEdgeStyle;rounded=0;orthogonalLoop=1;jettySize=auto;html=1;exitX=0;exitY=0.5;exitDx=0;exitDy=0;exitPerimeter=0;entryX=0.5;entryY=1;entryDx=0;entryDy=0;entryPerimeter=0;" edge="1" parent="1" source="RGf4goRO3DSi2ztkxVss-57" target="RGf4goRO3DSi2ztkxVss-86">
          <mxGeometry relative="1" as="geometry" />
        </mxCell>
        <mxCell id="RGf4goRO3DSi2ztkxVss-89" value="Get Market Data" style="text;html=1;align=center;verticalAlign=middle;resizable=0;points=[];autosize=1;strokeColor=none;fillColor=none;" vertex="1" parent="1">
          <mxGeometry x="-140" y="1420" width="110" height="30" as="geometry" />
        </mxCell>
        <mxCell id="RGf4goRO3DSi2ztkxVss-91" style="edgeStyle=orthogonalEdgeStyle;rounded=0;orthogonalLoop=1;jettySize=auto;html=1;exitX=0.75;exitY=0;exitDx=0;exitDy=0;exitPerimeter=0;entryX=0.75;entryY=1;entryDx=0;entryDy=0;entryPerimeter=0;" edge="1" parent="1" source="RGf4goRO3DSi2ztkxVss-86" target="RGf4goRO3DSi2ztkxVss-5">
          <mxGeometry relative="1" as="geometry" />
        </mxCell>
        <mxCell id="RGf4goRO3DSi2ztkxVss-92" style="edgeStyle=orthogonalEdgeStyle;rounded=0;orthogonalLoop=1;jettySize=auto;html=1;exitX=0.5;exitY=0;exitDx=0;exitDy=0;exitPerimeter=0;entryX=0;entryY=0.75;entryDx=0;entryDy=0;entryPerimeter=0;" edge="1" parent="1" source="RGf4goRO3DSi2ztkxVss-86" target="RGf4goRO3DSi2ztkxVss-3">
          <mxGeometry relative="1" as="geometry">
            <Array as="points">
              <mxPoint x="-190" y="800" />
              <mxPoint x="-370" y="800" />
              <mxPoint x="-370" y="430" />
            </Array>
          </mxGeometry>
        </mxCell>
        <mxCell id="RGf4goRO3DSi2ztkxVss-93" style="edgeStyle=orthogonalEdgeStyle;rounded=0;orthogonalLoop=1;jettySize=auto;html=1;exitX=0.25;exitY=0;exitDx=0;exitDy=0;exitPerimeter=0;entryX=0;entryY=0.75;entryDx=0;entryDy=0;entryPerimeter=0;" edge="1" parent="1" source="RGf4goRO3DSi2ztkxVss-86" target="RGf4goRO3DSi2ztkxVss-2">
          <mxGeometry relative="1" as="geometry">
            <Array as="points">
              <mxPoint x="-250" y="840" />
              <mxPoint x="-420" y="840" />
              <mxPoint x="-420" y="260" />
            </Array>
          </mxGeometry>
        </mxCell>
      </root>
    </mxGraphModel>
  </diagram>
</mxfile>
